<svg xmlns="http://www.w3.org/2000/svg" viewBox="0 0 200 150.98" role="img" aria-label="vovan-io">
  <style>
    .v-ink{ fill:#0c1526 }
    @media (prefers-color-scheme: dark){ .v-ink{ fill:#ffffff } }
  </style>
  <path class="v-ink" d="M0 0.72C0 0.94 0.86 2.41 1.91 4.06C2.95 5.68 5.32 9.42 7.19 12.41C9.06 15.36 13.81 22.91 17.73 29.13C21.69 35.35 27.05 43.84 29.67 48.01C39.2 63.19 49.6 79.66 58.98 94.41C68.69 109.66 79.16 126.2 80.88 129.01C81.39 129.87 81.89 130.55 82 130.55C82.11 130.55 82.47 129.37 82.79 127.93C84.41 121.27 88.83 115.45 94.41 112.75C95.99 111.96 97.32 111.31 97.36 111.31C97.43 111.27 98.18 107.71 99.05 103.36C100.45 96.67 102.21 89.44 103.04 87.36C103.15 87.03 102.14 85.09 100.41 82.32C98.83 79.88 94.73 73.4 91.28 67.97C87.83 62.54 79.45 49.16 72.65 38.3C65.89 27.41 59.41 17.05 58.3 15.29C57.15 13.49 54.63 9.42 52.65 6.22L49.09 0.4L24.56 0.36C8.27 0.36 0 0.47 0 0.72z"/>
  <path class="v-trace" fill="#e01e2b" fill-rule="evenodd" d="M148.97 0.97C148.57 1.55 144.33 8.2 139.51 15.82C128.21 33.7 127.53 34.78 124.98 38.81C123.79 40.64 121.63 44.06 120.16 46.36C118.68 48.66 115.7 53.26 113.54 56.64C107.71 65.6 105.27 69.56 105.27 69.99C105.27 70.45 111.38 80.45 111.85 80.74C112.1 80.92 113.72 78.51 121.67 65.92C123 63.8 124.08 61.93 124.08 61.79C124.08 61.64 123.57 61 123 60.35C120.48 57.62 120.59 53.16 123.18 50.06C128.03 44.27 138.18 48.8 136.81 56.14C136.27 58.91 134.22 61.5 131.92 62.29C131.2 62.54 130.37 63.55 129.04 65.74C119.37 81.93 116.35 86.5 113.54 89.34C108.9 94.05 109.12 93.4 105.74 110.27L104.19 117.89L102.28 118.25C95.88 119.55 90.78 125.37 90.16 132.06C89.23 142.6 99.55 150.98 109.62 147.89C113.86 146.56 116.78 143.97 119.08 139.54C120.19 137.35 120.27 136.99 120.3 133.43C120.3 129.76 120.27 129.55 118.97 126.92C117.71 124.37 115.63 121.99 113.4 120.48C112.57 119.94 112.57 119.91 113.11 117.96C113.43 116.89 114.48 112.46 115.41 108.18C116.38 103.9 117.46 99.8 117.78 99.08C118.14 98.4 119.58 96.71 120.99 95.38C122.68 93.83 124.47 91.6 126.09 89.08C127.46 86.96 132.24 79.66 136.7 72.86L144.83 60.49L145.12 48.52L145.37 36.5L144.22 35.89C141.67 34.45 140.95 29.74 142.92 27.15C144.36 25.28 145.69 24.71 148.39 24.89C150.4 25 150.84 25.18 151.95 26.25C154.4 28.63 154.5 32.3 152.13 34.53C151.41 35.21 150.48 36.04 150.08 36.32C149.36 36.83 149.33 37.12 149.51 43.09C149.61 46.5 149.83 49.2 150.01 49.02C150.37 48.62 160.04 31.22 160.04 30.89C160.04 30.79 159.68 30.39 159.29 29.99C155.91 27.01 156.77 20.03 160.83 17.51C166.52 13.99 173.31 17.62 173.35 24.2C173.35 27.44 170.76 31.4 168.28 31.9C167.34 32.08 166.84 32.73 164.65 36.47C163.24 38.84 160.26 43.88 158.07 47.65C155.87 51.39 152.85 56.57 151.41 59.16C148.68 63.98 140.98 76.53 137.6 81.75C136.56 83.37 134.26 86.96 132.53 89.73C130.8 92.5 128.29 96.46 126.92 98.54L124.47 102.36L123.14 108.43C122.46 111.81 121.78 114.94 121.7 115.45C121.6 116.13 121.88 116.71 123 117.89C123.79 118.72 124.62 119.4 124.76 119.4C124.94 119.4 126.7 116.85 128.68 113.76C130.66 110.63 134.98 103.79 138.28 98.54C141.63 93.29 145.62 87 147.2 84.52C148.82 82.04 151.27 78.15 152.67 75.89C154.11 73.62 158.39 66.82 162.2 60.78C166.01 54.74 171.37 46.25 174.07 41.9C176.8 37.55 181.44 30.1 184.39 25.36C187.34 20.61 191.98 13.2 194.71 8.88C197.41 4.57 199.75 0.79 199.86 0.5C200 0.07 196.4 0 174.86 0L149.65 0L148.97 0.97zM108.36 127.1C109.76 127.67 111.31 129.29 111.81 130.66C113.07 133.97 111.24 138.36 108.15 139.51C106.71 140.05 103.36 140.01 102.21 139.4C97.5 136.95 97.36 130.12 101.96 127.28C103.25 126.45 106.67 126.38 108.36 127.1z M164.18 21C162.49 21.76 161.66 22.87 161.66 24.53C161.66 28.12 166.84 29.46 168.49 26.25C169.65 24.06 168.89 21.94 166.66 21C165.26 20.43 165.51 20.43 164.18 21z M145.73 28.88C144.18 30.53 145.41 33.45 147.64 33.45C148.89 33.45 150.33 31.94 150.33 30.64C150.33 28.38 147.31 27.23 145.73 28.88z M127.24 52.36C125.19 53.44 124.91 55.89 126.56 57.58C129.15 60.17 133.5 57.58 132.35 54.13C131.7 52.11 129.26 51.25 127.24 52.36z"/>
</svg>
